# xmcd CD database file
#
# Track frame offsets:
#	150
#	13784
#	28725
#	41171
#	55193
#	71743
#	91379
#	101700
#	114524
#	132076
#	146619
#	162209
#	176535
#	194777
#	206617
#	222644
#	236897
#	252097
#	269398
#	294552
#	306725
#
# Disc length: 4352 seconds
#
# Revision: 0
# Processed by: cddbd v1.5.2PL0 Copyright (c) Steve Scherf et al.
# Submitted via: CDex 1.70beta2
#
DISCID=5010fe15
DTITLE=Sean Moyses - It's Banjo Time
DYEAR=2006
DGENRE=Jazz
TTITLE0=Somebody Stole My Gal
TTITLE1=Mr. Sandman
TTITLE2=Temptation Rag
TTITLE3=Cecilia
TTITLE4=High Society
TTITLE5=Blue Skies
TTITLE6=Nuages
TTITLE7=I'm Looking Over A Four Leafed Clover
TTITLE8=Leaning On A Lamp-Post
TTITLE9=Deed I Do
TTITLE10=Moonlight Serenade
TTITLE11=Changes
TTITLE12=I'm Coming Virginia
TTITLE13=Dinah
TTITLE14=You're Driving Me Crazy
TTITLE15=Chinese Laundry Blues
TTITLE16=I'm Sitting On Top Of The World
TTITLE17=A Nightingale Sang In Berkeley Square
TTITLE18=Lover Come Back To Me
TTITLE19=Somewhere Over The Rainbow
TTITLE20=After You've Gone
EXTD=YEAR: 2006
EXTT0=
EXTT1=
EXTT2=
EXTT3=
EXTT4=
EXTT5=
EXTT6=
EXTT7=
EXTT8=
EXTT9=
EXTT10=
EXTT11=
EXTT12=
EXTT13=
EXTT14=
EXTT15=
EXTT16=
EXTT17=
EXTT18=
EXTT19=
EXTT20=
PLAYORDER=
